<svg width="40" height="102" xmlns="http://www.w3.org/2000/svg">
  <view id="Edubirdie" viewBox="0 0 40 34" />
  <view id="Reviews.io" viewBox="0 34 40 34" />
  <view id="Sitejabber" viewBox="0 68 40 34" />
  <path d="M21.394 1.035L27.396 0l4.661 4.838-6.867.19-3.138-2.507-.658-1.486z" fill="#0F1F33"/>
  <path d="M28.758 6.287l-6.217-2.018.626-1.93h.012c2.31-.303 4.731.27 6.177 2.107l-.598 1.84v.001z" fill="#172E56"/>
  <path d="M22.666 3.596l-1.463-2.15c.944.204 2.189.178 2.903 2.15h-1.44z" fill="#3099D5"/>
  <path d="M37.388 20.518l-1.657-2.07v-.296a15.404 15.404 0 00-30.306-3.894l-1.972 1.307a3.271 3.271 0 00-1.43 3.099l.079.69.683-.696-.076.578c-.092.698.09 1.405.51 1.971l.286-.57a17.362 17.362 0 0032.103 4.377l.274.948a2.718 2.718 0 001.085-1.725l.104-.572.438.871.288-.633a3.27 3.27 0 00-.409-3.385z" fill="#3099D5"/>
  <path d="M19.193 26.123l.542-4.271c-1.405-.493-2.372.54-2.957 1.366-.243.346-.509.547-.783.63a1.05 1.05 0 01-.833-.117 1.543 1.543 0 00-.366-.162.602.602 0 00-.635.17.476.476 0 00.197.732l.413.143a3.33 3.33 0 012.124 2.03c.073.197.719 1.67 2.005 1.82l.293-2.341z" fill="#F1CB7F"/>
  <path d="M19.193 26.123l.525-4.273c1.483-.135 2.168 1.106 2.528 2.051.15.394.359.654.603.803a1.054 1.054 0 00.836.091 1.61 1.61 0 01.395-.068.6.6 0 01.573.321.482.482 0 01-.279.64.365.365 0 01-.09.02l-.437.036a3.327 3.327 0 00-2.557 1.447c-.12.176-1.107 1.442-2.39 1.27l.293-2.338z" fill="#E09D47"/>
  <path d="M18.977 27.87c1.665 0 2.184-1.926 4.351-2.508l-.853-.025a6.47 6.47 0 00-3.28.789 6.48 6.48 0 00-2.987-1.567l-.833-.187c1.957 1.093 1.986 3.09 3.602 3.497v.001z" fill="#3A2B1F"/>
  <path d="M21.079 24.14v-.008a1.517 1.517 0 01-.016-.66c.204.108.37.276.475.481a.246.246 0 11-.45.2l-.01-.013h.001z" fill="#685035"/>
  <path d="M32.325 11.788l-.542.64c-.92-1.5-2.962-2.142-4.578-2.464l.133-1.986c2.504.56 4.14 1.961 4.987 3.806v.004z" fill="#3365B0"/>
  <path d="M13.537 21.937c3.375 0 6.11-2.826 6.11-6.313 0-3.486-2.735-6.312-6.11-6.312-3.375 0-6.11 2.826-6.11 6.312 0 3.487 2.735 6.313 6.11 6.313z" fill="#3070B8"/>
  <path d="M18.936 16.376a5.192 5.192 0 00-6.344-5.972A5.194 5.194 0 008.68 14.74a5.194 5.194 0 0010.257 1.637l-.001-.001z" fill="#fff"/>
  <path d="M13.807 19.54a3.365 3.365 0 100-6.73 3.365 3.365 0 000 6.73z" fill="#4E8D59"/>
  <path d="M13.648 18.246a1.725 1.725 0 100-3.45 1.725 1.725 0 000 3.45z" fill="#231F20"/>
  <path d="M15.178 15.811c.467-.305.705-.769.53-1.037-.174-.267-.695-.237-1.162.068-.468.304-.705.768-.53 1.036.174.268.694.238 1.162-.067z" fill="#fff"/>
  <path d="M27.417 23.839c3.383 0 6.125-2.833 6.125-6.327 0-3.494-2.742-6.327-6.125-6.327-3.382 0-6.124 2.833-6.124 6.327 0 3.494 2.742 6.327 6.124 6.327z" fill="#3070B8"/>
  <path d="M29.483 22.254a5.207 5.207 0 10-3.834-9.683 5.207 5.207 0 003.834 9.683z" fill="#fff"/>
  <path d="M30.773 18.838a3.374 3.374 0 10-6.568-1.55 3.374 3.374 0 006.568 1.55z" fill="#4E8D59"/>
  <path d="M27.332 20.14a1.73 1.73 0 100-3.456 1.73 1.73 0 000 3.455v.001z" fill="#231F20"/>
  <path d="M29.397 16.66c.175.268-.063.733-.531 1.038-.469.304-.991.336-1.166.068-.174-.268.063-.734.532-1.04.468-.305.99-.334 1.165-.066z" fill="#fff"/>
  <path fill-rule="evenodd" clip-rule="evenodd" d="M6.642 10.398a46.593 46.593 0 01-.334-.022c-.431-.002-.862 0-1.293.008-.236.018-.469.07-.69.154a.918.918 0 00-.575.604.093.093 0 00-.009-.002c-.016.006-.034.114-.037.136-.024.13-.039.262-.046.395-.015.479.147.947.454 1.315.49.582.69 1.264.726 2.004.015.438.004.876-.032 1.313a8.305 8.305 0 00.225 2.514c.096.388.228.767.394 1.132a3.783 3.783 0 002.302 2.11c.394.139.788.277 1.195.375.253.063.505.12.76.162.817.128 1.646.167 2.471.116.37-.024.737-.06 1.102-.116.293-.048.584-.104.874-.168a5.825 5.825 0 001.126-.34c1.002-.427 1.792-1.117 2.432-1.99.488-.663.865-1.391 1.222-2.131.207-.466.464-.908.767-1.318.312-.396.697-.45 1.113-.262.201.09.3.277.387.466.217.467.317.967.417 1.466.01.056.022.11.033.166.05.246.09.494.131.742l.066.39c.072.41.189.811.347 1.196a6.18 6.18 0 001.917 2.52 7.95 7.95 0 001.802 1.073c.369.16.747.297 1.133.409.335.095.675.171 1.016.245.287.065.575.123.864.164.357.05.716.089 1.08.11a6.762 6.762 0 002.184-.189c.359-.095.7-.25 1.005-.461a5.27 5.27 0 001.612-1.873c.244-.463.454-.944.627-1.438.1-.277.195-.557.272-.841l.07-.247c.05-.169.1-.338.139-.523.029-.139.066-.276.104-.414.036-.133.072-.267.101-.402a1.97 1.97 0 01.432-.888c.282-.31.584-.6.904-.871l.01-.01c.167-.149.334-.298.43-.512.146-.38.127-.954.029-1.278v-.023c-.093-.248-.376-.443-.635-.566a6.647 6.647 0 00-1.358-.416c-.532-.122-1.068-.217-1.603-.313l-.194-.035c-.482-.085-.965-.17-1.45-.244a50.659 50.659 0 01-.407-.065 23.94 23.94 0 00-.972-.145c-.6-.074-1.203-.114-1.806-.135a31.114 31.114 0 00-3.523.068c-.242.019-.486.03-.73.04-.199.01-.397.019-.595.032-.76.05-1.518.05-2.277.026-.52-.02-1.04-.06-1.558-.122a9.593 9.593 0 01-1.303-.258 12.564 12.564 0 01-1.2-.38c-.345-.124-.692-.245-1.038-.366l-.578-.203c-.514-.184-1.03-.36-1.55-.526a20.22 20.22 0 00-1.182-.345c-.349-.091-.7-.178-1.055-.25l-.187-.036c-.196-.038-.393-.077-.59-.112a16.68 16.68 0 00-1.128-.163l-.216-.018a5.076 5.076 0 01-.348-.036 35.938 35.938 0 00-1.788-.212 38.052 38.052 0 01-.282-.028c-.126-.013-.252-.028-.377-.042-.223-.025-.445-.05-.668-.07-.22-.02-.44-.033-.66-.046h-.001zm6.598 11.43c-.456.08-.918.113-1.38.099a8.103 8.103 0 01-1.238-.056 12.45 12.45 0 01-.967-.162 9.617 9.617 0 01-.945-.245 4.481 4.481 0 01-1.491-.81A3.826 3.826 0 015.874 18.4c-.131-.686-.094-1.374-.057-2.064l.004-.069.005-.097c.014-.255.028-.515.057-.76.06-.573.166-1.14.317-1.695.128-.45.288-.884.578-1.26.174-.215.414-.366.683-.428.787-.22 1.59-.197 2.394-.155.547.027 1.09.083 1.631.163.4.058.796.126 1.19.206.792.155 1.573.36 2.338.616.58.186 1.14.424 1.676.713.427.237.83.504 1.145.887.22.269.297.585.346.915.06.427.06.86 0 1.288-.057.398-.154.79-.288 1.169a6.63 6.63 0 01-1.22 2.098c-.554.656-1.208 1.184-2.018 1.508a7.01 7.01 0 01-1.415.394v-.001zm18.565 2.367c-.614.195-1.247.234-1.886.234a8.222 8.222 0 01-1.183-.065 11.15 11.15 0 01-1.13-.218 8.102 8.102 0 01-2.267-.914 5.52 5.52 0 01-2.162-2.417 5.586 5.586 0 01-.4-1.12 6.723 6.723 0 01-.155-2.365c.045-.396.132-.786.259-1.163.167-.49.51-.816.95-1.054a3.938 3.938 0 011.161-.414 14.603 14.603 0 012.622-.22c.603 0 1.2.045 1.799.098.416.035.83.09 1.244.161.128.023.256.042.384.061.185.028.369.055.551.093l.314.063c.221.044.44.087.672.144.339.084.674.181 1.005.289.678.22 1.155.63 1.308 1.362.127.6.101 1.2.05 1.803-.026.34-.07.68-.131 1.016-.04.242-.08.484-.136.723l-.025.1c-.054.218-.107.435-.173.65-.305.997-.744 1.914-1.587 2.58-.324.255-.691.45-1.084.573z" fill="#221D12"/>
  <path d="M9.902 4.274c1.363-1.042 7.517-5.472 12.335-1.406l-7.135 1.355a4.961 4.961 0 00-.493-.374c-.068-.025-4.707.425-4.707.425z" fill="#3099D5"/>
  <path d="M17.852 23.736v-.005c.105-.197.166-.415.178-.637a1.115 1.115 0 00-.579.35.246.246 0 10.388.303l.014-.01-.001-.001z" fill="#685035"/>
  <path d="M27.574.436a.231.231 0 01-.229.231.23.23 0 11.229-.231z" fill="#DEA147"/>
  <path d="M27.345 1.126a.23.23 0 100-.46.23.23 0 000 .46z" fill="#DEA147"/>
  <path d="M27.574 1.355a.231.231 0 01-.229.231.23.23 0 11.229-.231z" fill="#DEA147"/>
  <path d="M27.574 1.816a.231.231 0 01-.229.231.23.23 0 11.229-.231z" fill="#DEA147"/>
  <path d="M27.345 2.506a.23.23 0 100-.46.23.23 0 000 .46zm-.365 1.023l-.011.03a7.415 7.415 0 00-.493 1.85l-.023.17a2.417 2.417 0 001.804.06l.078-.028-.036-.222a7.42 7.42 0 00-.571-1.882l-.747.022h-.001z" fill="#DEA147"/>
  <path d="M27.114 3.933l-.34 1.76.1.027.107.022.133-1.809zm.231-.273l-.137 2.115c.193.018.389.012.581-.016 0 0-.254-1.684-.247-1.666.006.018.394 1.638.394 1.638h.012a1.65 1.65 0 00.394-.12s-.25-1.144-.255-1.162c-.006-.019-.36-.942-.36-.942l-.383.152.001.001z" fill="#F0C44B"/>
  <path d="M27.913 3.09a.571.571 0 11-.168-.402.57.57 0 01.168.403V3.09z" fill="#DEA147"/>
  <path d="M21.489 22.27c.144-.47-.457-1.213-1.438-1.289-.981-.076-1.951.066-2.005.801-.07.932.991.296 1.69.349.523.04 1.48 1.023 1.753.139z" fill="#F3D4D7"/>
  <path d="M21.516 22.167c.044-.57-.64-1.345-1.62-1.421-.98-.076-1.806.467-1.85 1.037-.045.57 1.147-.112 1.735-.06.587.053 1.691 1.015 1.735.444z" fill="#EAB7BB"/>
  <path d="M11.598 5.466a16.597 16.597 0 012.582-1.472l.216-.091-.822 1.232-1.976.331z" fill="#3070B8"/>
  <path d="M13.056 4.774c-.663.567-1.536 1.513-1.815 2.407 0 0 6.579-2.096 9.259-3.681l-3.576.674-3.868.6z" fill="#3070B8"/>
  <path d="M14.167 3.694l-.165.15c-.727.661-1.379 1.4-1.944 2.203C14.227 5.406 18.845 3.99 20.5 3.5l-6.333.194z" fill="#3099D5"/>
  <path d="M10.395 8.758l.345.764c1.479-1.06 3.437-1.247 5.077-1.11l.419-1.947c-2.563-.148-4.518.75-5.84 2.292l-.001.001z" fill="#3365B0"/>
  <path d="M30.772 40.449l-1.514.755c2.922 2.348 4.351 5.38 4.618 9.047-.223 7.081-3.582 11.633-9.353 13.585-6.67 1.997-10.895.38-14.983-3.761l-.255 1.572 1.668 1.728c5.783 5.992 15.369 6.188 21.395.438s6.224-15.282.44-21.275l-2.015-2.09h-.001z" fill="#FEEF7C"/>
  <path d="M30.709 40.348l-1.662-1.722c-5.783-5.992-15.37-6.189-21.396-.44-6.025 5.75-6.223 15.285-.44 21.275l1.273 1.32 1.001-.87c-4.173-5.88-4.348-14.491 1.363-19.23 4.234-3.514 12.635-5.336 19.357.549l.503-.882h.001z" fill="#5CD3CB"/>
  <path d="M4.87 51.046c0 8.325 6.788 15.076 15.161 15.076 8.374 0 15.162-6.75 15.162-15.076 0-8.327-6.788-15.076-15.162-15.076-8.373 0-15.162 6.75-15.162 15.076h.001zm10.553 2.726a1.23 1.23 0 00-.443-1.362l-4.82-3.58a.616.616 0 01.372-1.113h5.762c.535 0 1.012-.342 1.18-.85l1.956-5.87a.62.62 0 011.18-.003l1.976 5.878c.17.504.645.845 1.18.845h5.777a.616.616 0 01.374 1.11L25.1 52.435a1.234 1.234 0 00-.437 1.363l1.887 5.928a.618.618 0 01-.605.804.624.624 0 01-.366-.127l-4.802-3.667a1.248 1.248 0 00-1.519.003l-4.75 3.652a.624.624 0 01-.969-.289.617.617 0 01-.005-.385l1.888-5.944z"/>
  <path fill-rule="evenodd" clip-rule="evenodd" d="M18 102l-.323-.003C8.437 101.825 1 94.281 1 85c0-9.389 7.611-17 17-17s17 7.611 17 17c0 3.767-1.225 7.248-3.299 10.066L39.857 102H18z" fill="#F06A22"/>
  <path fill-rule="evenodd" clip-rule="evenodd" d="M18 90.464l-5.527 2.906a.5.5 0 01-.725-.527l1.055-6.154-4.471-4.359a.5.5 0 01.277-.853l6.18-.898 2.763-5.599a.5.5 0 01.896 0l2.764 5.6 6.18.897a.5.5 0 01.276.853l-4.471 4.359 1.055 6.154a.5.5 0 01-.725.527L18 90.464z" fill="#fff"/>
</svg>