<svg width="339" height="52" viewBox="0 0 339 52" fill="none" xmlns="http://www.w3.org/2000/svg">
<path d="M15.2192 51.2522C21.4115 51.2522 26.4315 46.3501 26.4315 40.3031C26.4315 34.2561 21.4115 29.354 15.2192 29.354C9.02676 29.354 4.00684 34.2561 4.00684 40.3031C4.00684 46.3501 9.02676 51.2522 15.2192 51.2522Z" fill="#69BBFE"/>
<path d="M14.5069 29.2935H25.4737C25.744 29.2935 26.0033 29.3983 26.1944 29.585C26.3856 29.7717 26.493 30.0248 26.493 30.2888V40.9982C26.493 42.3707 26.2162 43.7297 25.6783 44.9978C25.1404 46.2658 24.3521 47.4179 23.3582 48.3885C22.3644 49.359 21.1846 50.1288 19.8861 50.654C18.5875 51.1793 17.1958 51.4496 15.7903 51.4496C12.6114 51.4496 9.56269 50.2164 7.31485 48.0214C5.06702 45.8263 3.8042 42.8492 3.8042 39.7449C3.8042 36.973 4.9318 34.3146 6.93894 32.3546C8.94608 30.3946 11.6683 29.2935 14.5069 29.2935Z" fill="#69BBFE"/>
<path d="M28.8174 40.9983V30.2889C28.8174 30.025 28.9248 29.7718 29.1159 29.5851C29.3071 29.3984 29.5664 29.2936 29.8367 29.2936H40.8035C42.209 29.2936 43.6007 29.5639 44.8992 30.0891C46.1977 30.6144 47.3776 31.3842 48.3714 32.3547C49.3653 33.3252 50.1536 34.4774 50.6915 35.7454C51.2293 37.0134 51.5062 38.3725 51.5062 39.745C51.5062 42.8493 50.2434 45.8264 47.9955 48.0215C45.7477 50.2165 42.699 51.4497 39.5201 51.4497C36.6815 51.4497 33.9593 50.3486 31.9521 48.3886C29.945 46.4285 28.8174 43.7702 28.8174 40.9983Z" fill="#E23029"/>
<path d="M41.5051 27.6035L30.5507 27.6035C30.2804 27.6035 30.0211 27.4986 29.83 27.312C29.6388 27.1253 29.5314 26.8721 29.5314 26.6081V15.8988C29.5314 13.1269 30.659 10.4685 32.6662 8.50852C34.6733 6.5485 37.3956 5.44738 40.2341 5.44738C43.413 5.44738 46.4617 6.68055 48.7096 8.87561C50.9574 11.0707 52.2202 14.0478 52.2202 17.1521C52.2202 18.5256 51.943 19.8857 51.4043 21.1545C50.8657 22.4233 50.0762 23.576 49.0811 24.5467C48.0859 25.5173 46.9046 26.2869 45.6047 26.8114C44.3047 27.3359 42.9117 27.6051 41.5051 27.6035Z" fill="#B4EB1E"/>
<path d="M22.689 10.4666V21.1608C22.689 21.4247 22.5816 21.6779 22.3904 21.8646C22.1993 22.0513 21.94 22.1561 21.6697 22.1561H10.7028C7.86432 22.1561 5.14206 21.055 3.13492 19.095C1.12778 17.135 0.000175476 14.4766 0.000175476 11.7047C0.000175476 8.60044 1.263 5.6233 3.51083 3.42823C5.75867 1.23317 8.80738 0 11.9863 0C14.8248 0 17.5471 1.10113 19.5542 3.06115C21.5614 5.02116 22.689 7.67952 22.689 10.4514V10.4666Z" fill="#FEDE00"/>
<path d="M74.9016 38.3089C73.9536 38.801 72.0576 39.2932 69.625 39.2932C63.9919 39.2932 59.7534 35.5959 59.7534 28.7912C59.7534 22.2834 63.9919 17.8906 70.1891 17.8906C72.6805 17.8906 74.2513 18.4438 74.9329 18.8139L74.3257 21.0144C73.0599 20.4214 71.6833 20.1269 70.2948 20.1521C65.5941 20.1521 62.4955 23.2636 62.4955 28.6936C62.4955 33.7778 65.312 37.0399 70.1734 37.0399C71.6198 37.0624 73.0546 36.7686 74.3845 36.1776L74.9016 38.3089Z" fill="#E23029"/>
<path d="M88.6999 32.5741C88.6999 37.2393 85.5896 39.273 82.6556 39.273C79.369 39.273 76.8345 36.7675 76.8345 32.7652C76.8345 28.5433 79.4943 26.0703 82.8553 26.0703C86.3417 26.0866 88.6999 28.7182 88.6999 32.5741ZM79.0673 32.7042C79.0673 35.466 80.599 37.5525 82.7535 37.5525C84.908 37.5525 86.4436 35.4944 86.4436 32.6717C86.4436 30.5363 85.4133 27.8234 82.8044 27.8234C80.1955 27.8234 79.0673 30.3085 79.0673 32.7042Z" fill="#E23029"/>
<path d="M91.4822 29.7838C91.4822 28.4822 91.4548 27.4125 91.3804 26.3712H93.339L93.4644 28.4578H93.5192C93.917 27.7204 94.5013 27.1098 95.2089 26.6919C95.9165 26.274 96.7206 26.0646 97.5344 26.0865C99.2149 26.0865 101.824 27.1278 101.824 31.4514V38.9842H99.6184V31.7158C99.6184 29.6821 98.8898 27.986 96.8058 27.986C95.961 28.023 95.1634 28.4006 94.5826 29.0386C94.0018 29.6767 93.6835 30.5247 93.6955 31.4026V38.9842H91.4822V29.7838Z" fill="#E23029"/>
<path d="M107.965 22.7471V26.3711H111.126V28.116H107.965V34.9207C107.965 36.4826 108.391 37.3612 109.618 37.3612C110.05 37.3691 110.48 37.3157 110.899 37.2025L111 38.9231C110.372 39.1521 109.708 39.2582 109.042 39.2362C108.601 39.2639 108.16 39.1921 107.749 39.0257C107.338 38.8593 106.966 38.6022 106.66 38.2723C106.033 37.5971 105.806 36.4745 105.806 34.9899V28.116H103.926V26.3711H105.806V23.349L107.965 22.7471Z" fill="#E23029"/>
<path d="M114.673 33.0947C114.724 36.1981 116.632 37.4752 118.837 37.4752C119.99 37.5126 121.137 37.2892 122.198 36.8204L122.59 38.4474C121.312 39.0012 119.935 39.2674 118.551 39.2283C114.814 39.2283 112.581 36.674 112.581 32.871C112.581 29.068 114.739 26.0703 118.277 26.0703C122.241 26.0703 123.295 29.6903 123.295 32.0087C123.292 32.3667 123.265 32.724 123.216 33.0784L114.673 33.0947ZM121.144 31.4677C121.172 30.0116 120.568 27.742 118.085 27.742C115.852 27.742 114.873 29.8815 114.696 31.4677H121.144Z" fill="#E23029"/>
<path d="M126.033 29.7839C126.033 28.4823 126.01 27.4126 125.936 26.3714H127.894L128.02 28.4579H128.07C128.468 27.7199 129.052 27.1088 129.76 26.6908C130.467 26.2728 131.272 26.0639 132.086 26.0866C133.766 26.0866 136.375 27.1279 136.375 31.4515V38.9843H134.166V31.7159C134.166 29.6822 133.437 27.9861 131.357 27.9861C130.687 27.9969 130.037 28.2306 129.504 28.653C128.971 29.0755 128.582 29.6643 128.396 30.333C128.291 30.6789 128.241 31.0402 128.247 31.4027V38.9843H126.033V29.7839Z" fill="#E23029"/>
<path d="M142.486 22.7471V26.3711H145.647V28.116H142.486V34.9207C142.486 36.4826 142.913 37.3612 144.143 37.3612C144.575 37.3685 145.006 37.3151 145.424 37.2025L145.522 38.9231C144.893 39.1526 144.229 39.2588 143.563 39.2362C143.122 39.264 142.68 39.1922 142.269 39.0258C141.857 38.8594 141.485 38.6023 141.178 38.2723C140.551 37.5971 140.328 36.4745 140.328 34.9899V28.116H138.443V26.3711H140.328V23.349L142.486 22.7471Z" fill="#E23029"/>
<path d="M148.57 18.5049C150.385 18.2209 152.218 18.0768 154.054 18.0737C157.76 18.0737 160.4 18.9686 162.147 20.6606C163.894 22.3526 164.964 24.7564 164.964 28.112C164.964 31.4676 163.957 34.2741 162.088 36.1817C160.22 38.0893 157.137 39.1713 153.255 39.1713C151.685 39.1811 150.115 39.0983 148.554 38.9232L148.57 18.5049ZM151.147 36.8772C152.012 37.0006 152.884 37.0523 153.756 37.0318C159.272 37.0318 162.265 33.8267 162.265 28.2218C162.296 23.341 159.628 20.2172 154.172 20.2172C153.157 20.2003 152.144 20.293 151.147 20.4938V36.8772Z" fill="#5B96C9"/>
<path d="M169.122 33.0947C169.173 36.1981 171.081 37.4752 173.286 37.4752C174.439 37.513 175.586 37.2896 176.647 36.8204L177.039 38.4474C175.761 39.0012 174.384 39.2674 173 39.2283C169.263 39.2283 167.03 36.674 167.03 32.871C167.03 29.068 169.189 26.0703 172.726 26.0703C176.69 26.0703 177.744 29.6903 177.744 32.0087C177.741 32.3667 177.715 32.724 177.666 33.0784L169.122 33.0947ZM175.593 31.4677C175.621 30.0116 175.018 27.742 172.534 27.742C170.301 27.742 169.322 29.8815 169.146 31.4677H175.593Z" fill="#5B96C9"/>
<path d="M181.31 26.3711L183.692 33.4605C184.073 34.5183 184.4 35.5963 184.671 36.69H184.746C185.024 35.6488 185.377 34.6075 185.776 33.4605L188.126 26.3711H190.434L185.666 38.98H183.559L178.944 26.3711H181.31Z" fill="#5B96C9"/>
<path d="M193.502 33.0947C193.553 36.1981 195.461 37.4752 197.666 37.4752C198.819 37.513 199.966 37.2896 201.027 36.8204L201.419 38.4474C200.141 39.0012 198.764 39.2674 197.38 39.2283C193.643 39.2283 191.41 36.674 191.41 32.871C191.41 29.068 193.569 26.0703 197.106 26.0703C201.07 26.0703 202.124 29.6903 202.124 32.0087C202.12 32.3665 202.095 32.7237 202.049 33.0784L193.502 33.0947ZM199.973 31.4677C200.001 30.0116 199.397 27.742 196.914 27.742C194.681 27.742 193.702 29.8815 193.529 31.4677H199.973Z" fill="#5B96C9"/>
<path d="M204.837 20.4814H207.047V38.984H204.837V20.4814Z" fill="#5B96C9"/>
<path d="M221.748 32.5741C221.748 37.2393 218.637 39.273 215.7 39.273C212.413 39.273 209.882 36.7675 209.882 32.7652C209.882 28.5433 212.538 26.0703 215.903 26.0703C219.39 26.0866 221.748 28.7182 221.748 32.5741ZM212.111 32.7042C212.111 35.466 213.643 37.5525 215.801 37.5525C217.96 37.5525 219.488 35.4944 219.488 32.6717C219.488 30.5363 218.461 27.8234 215.852 27.8234C213.243 27.8234 212.111 30.3085 212.111 32.7042Z" fill="#5B96C9"/>
<path d="M224.53 30.4872C224.53 28.8603 224.479 27.5709 224.432 26.3711H226.414L226.512 28.5349H226.563C227.001 27.761 227.633 27.1251 228.392 26.6953C229.151 26.2654 230.008 26.0578 230.872 26.0945C233.81 26.0945 236.015 28.6732 236.015 32.5047C236.015 37.0398 233.355 39.2809 230.496 39.2809C229.761 39.3131 229.031 39.1476 228.376 38.8006C227.722 38.4535 227.164 37.9366 226.759 37.3001H226.708V44.1537H224.526L224.53 30.4872ZM226.712 33.851C226.718 34.1668 226.752 34.4813 226.813 34.7905C226.997 35.5576 227.423 36.2386 228.023 36.7252C228.623 37.2117 229.362 37.4757 230.123 37.475C232.474 37.475 233.814 35.4942 233.814 32.5941C233.814 30.0683 232.533 27.9045 230.202 27.9045C229.42 27.9275 228.668 28.2198 228.064 28.7352C227.46 29.2506 227.038 29.96 226.864 30.7516C226.775 31.0569 226.724 31.3726 226.712 31.6912V33.851Z" fill="#5B96C9"/>
<path d="M238.804 29.7838C238.804 28.4822 238.777 27.4125 238.702 26.3712H240.633L240.735 28.4049H240.81C241.173 27.6874 241.723 27.09 242.396 26.6802C243.07 26.2705 243.841 26.0648 244.621 26.0865C245.378 26.0779 246.117 26.3175 246.735 26.771C247.352 27.2246 247.816 27.869 248.061 28.6124H248.111C248.448 27.9781 248.908 27.4239 249.463 26.9854C250.232 26.3746 251.183 26.0624 252.15 26.1028C253.756 26.1028 256.138 27.1969 256.138 31.5734V39.0005H253.98V31.8459C253.98 29.4055 253.126 27.9616 251.347 27.9616C250.759 27.9869 250.192 28.2006 249.725 28.5734C249.258 28.9463 248.913 29.46 248.738 30.0441C248.622 30.4146 248.563 30.8016 248.562 31.1911V38.9842H246.404V31.427C246.404 29.4218 245.55 27.9616 243.869 27.9616C242.49 27.9616 241.487 29.1086 241.127 30.2556C241.004 30.6143 240.944 30.9933 240.951 31.3741V38.9842H238.796L238.804 29.7838Z" fill="#5B96C9"/>
<path d="M260.953 33.0947C261.004 36.1981 262.912 37.4752 265.117 37.4752C266.27 37.513 267.417 37.2896 268.478 36.8204L268.87 38.4474C267.592 39.0012 266.216 39.2674 264.831 39.2283C261.094 39.2283 258.861 36.674 258.861 32.871C258.861 29.068 261.02 26.0703 264.557 26.0703C268.521 26.0703 269.575 29.6903 269.575 32.0087C269.572 32.3667 269.546 32.724 269.497 33.0784L260.953 33.0947ZM267.425 31.4677C267.452 30.0116 266.849 27.742 264.365 27.742C262.132 27.742 261.153 29.8815 260.977 31.4677H267.425Z" fill="#5B96C9"/>
<path d="M272.287 29.7839C272.287 28.4823 272.264 27.4126 272.189 26.3714H274.148L274.273 28.4579H274.324C274.722 27.7199 275.306 27.1088 276.013 26.6908C276.721 26.2728 277.526 26.0639 278.34 26.0866C280.02 26.0866 282.649 27.1279 282.649 31.4515V38.9843H280.439V31.7159C280.439 29.6822 279.715 27.9861 277.631 27.9861C276.96 27.9969 276.311 28.2306 275.778 28.653C275.244 29.0755 274.856 29.6643 274.669 30.333C274.564 30.6789 274.514 31.0402 274.52 31.4027V38.9843H272.311L272.287 29.7839Z" fill="#5B96C9"/>
<path d="M288.772 22.7471V26.3711H291.933V28.116H288.772V34.9207C288.772 36.4826 289.199 37.3612 290.429 37.3612C290.861 37.3688 291.292 37.3154 291.71 37.2025L291.808 38.9231C291.18 39.153 290.515 39.2592 289.849 39.2362C289.408 39.264 288.967 39.1922 288.555 39.0258C288.143 38.8594 287.771 38.6023 287.464 38.2723C286.837 37.5971 286.614 36.4745 286.614 34.9899V28.116H284.729V26.3711H286.614V23.349L288.772 22.7471Z" fill="#5B96C9"/>
<path d="M294.836 18.4764C296.473 18.1982 298.129 18.0621 299.788 18.0696C302.338 18.0696 304.207 18.6879 305.39 19.7942C305.969 20.342 306.426 21.0146 306.728 21.765C307.03 22.5154 307.171 23.3253 307.141 24.1382C307.141 26.0173 306.608 27.4938 305.597 28.5716C304.234 30.0806 302.009 30.8493 299.49 30.8493C298.794 30.8733 298.097 30.8118 297.414 30.6663V38.98H294.836V18.4764ZM297.414 28.4821C298.114 28.646 298.831 28.7184 299.549 28.6977C302.663 28.6977 304.559 27.1277 304.559 24.2642C304.559 21.5228 302.691 20.1969 299.858 20.1969C299.042 20.1718 298.226 20.2442 297.426 20.4124L297.414 28.4821Z" fill="#87AA0C"/>
<path d="M310.188 30.3082C310.188 28.8196 310.164 27.5424 310.09 26.371H312.021L312.095 28.848H312.197C312.75 27.1519 314.078 26.0863 315.558 26.0863C315.77 26.0827 315.981 26.1086 316.185 26.1636V28.3355C315.938 28.2783 315.686 28.251 315.433 28.2542C313.866 28.2542 312.773 29.4744 312.472 31.199C312.409 31.5519 312.375 31.9098 312.37 32.2687V38.9921H310.188V30.3082Z" fill="#87AA0C"/>
<path d="M329.126 32.5741C329.126 37.2393 326.016 39.273 323.082 39.273C319.795 39.273 317.261 36.7675 317.261 32.7652C317.261 28.5433 319.921 26.0703 323.282 26.0703C326.768 26.0866 329.126 28.7182 329.126 32.5741ZM319.494 32.7042C319.494 35.466 321.025 37.5525 323.18 37.5525C325.334 37.5525 326.87 35.4944 326.87 32.6717C326.87 30.5363 325.84 27.8234 323.231 27.8234C320.622 27.8234 319.494 30.3085 319.494 32.7042Z" fill="#87AA0C"/>
<path d="M331.607 36.6371C332.481 37.2067 333.486 37.5227 334.517 37.5523C336.123 37.5523 336.867 36.7388 336.867 35.6731C336.867 34.6075 336.241 33.9811 334.607 33.3547C332.425 32.5413 331.399 31.2966 331.399 29.7836C331.399 27.7499 332.966 26.0863 335.587 26.0863C336.63 26.0744 337.658 26.3435 338.571 26.8673L338.019 28.5349C337.273 28.055 336.413 27.8014 335.536 27.8028C334.231 27.8028 333.506 28.5878 333.506 29.5233C333.506 30.5686 334.231 31.0363 335.814 31.6627C337.921 32.4965 338.998 33.5907 338.998 35.4657C338.998 37.6824 337.341 39.2443 334.458 39.2443C333.269 39.2667 332.094 38.9712 331.046 38.3861L331.607 36.6371Z" fill="#87AA0C"/>
</svg>
