<svg width="31" height="31" viewBox="0 0 31 31" fill="none" xmlns="http://www.w3.org/2000/svg">
<circle cx="15.5" cy="15.5" r="15.5" fill="#FE6000"/>
<circle cx="15.5" cy="15.5" r="13" fill="white"/>
<g clip-path="url(#clip0_2565_500)">
<g clip-path="url(#clip1_2565_500)">
<path opacity="0.5" d="M18.6671 16.9108L18.3255 17.2704C18.3255 17.2704 17.5136 18.1252 15.2973 15.7919C13.0811 13.4586 13.893 12.6038 13.893 12.6038L14.1081 12.3773C14.6381 11.8194 14.688 10.9237 14.2257 10.2698L13.2799 8.93221C12.7077 8.12288 11.602 8.01596 10.9461 8.70648L9.76889 9.94585C9.44367 10.2882 9.22574 10.7321 9.25217 11.2245C9.31978 12.4841 9.85803 15.1943 12.8615 18.3564C16.0466 21.7097 19.0351 21.8429 20.2572 21.7223C20.6438 21.6841 20.9799 21.4757 21.2508 21.1905L22.3163 20.0688C23.0354 19.3117 22.8326 18.0136 21.9125 17.484L20.4796 16.6592C19.8754 16.3115 19.1393 16.4136 18.6671 16.9108Z" fill="#FF6000"/>
<path opacity="0.5" d="M18.6671 16.9108L18.3255 17.2704C18.3255 17.2704 17.5136 18.1252 15.2973 15.7919C13.0811 13.4586 13.893 12.6038 13.893 12.6038L14.1081 12.3773C14.6381 11.8194 14.688 10.9237 14.2257 10.2698L13.2799 8.93221C12.7077 8.12288 11.602 8.01596 10.9461 8.70648L9.76889 9.94585C9.44367 10.2882 9.22574 10.7321 9.25217 11.2245C9.31978 12.4841 9.85803 15.1943 12.8615 18.3564C16.0466 21.7097 19.0351 21.8429 20.2572 21.7223C20.6438 21.6841 20.9799 21.4757 21.2508 21.1905L22.3163 20.0688C23.0354 19.3117 22.8326 18.0136 21.9125 17.484L20.4796 16.6592C19.8754 16.3115 19.1393 16.4136 18.6671 16.9108Z" fill="#FF6000"/>
<path opacity="0.5" d="M18.6671 16.9108L18.3255 17.2704C18.3255 17.2704 17.5136 18.1252 15.2973 15.7919C13.0811 13.4586 13.893 12.6038 13.893 12.6038L14.1081 12.3773C14.6381 11.8194 14.688 10.9237 14.2257 10.2698L13.2799 8.93221C12.7077 8.12288 11.602 8.01596 10.9461 8.70648L9.76889 9.94585C9.44367 10.2882 9.22574 10.7321 9.25217 11.2245C9.31978 12.4841 9.85803 15.1943 12.8615 18.3564C16.0466 21.7097 19.0351 21.8429 20.2572 21.7223C20.6438 21.6841 20.9799 21.4757 21.2508 21.1905L22.3163 20.0688C23.0354 19.3117 22.8326 18.0136 21.9125 17.484L20.4796 16.6592C19.8754 16.3115 19.1393 16.4136 18.6671 16.9108Z" fill="#FF6000"/>
<path opacity="0.5" d="M18.6671 16.9108L18.3255 17.2704C18.3255 17.2704 17.5136 18.1252 15.2973 15.7919C13.0811 13.4586 13.893 12.6038 13.893 12.6038L14.1081 12.3773C14.6381 11.8194 14.688 10.9237 14.2257 10.2698L13.2799 8.93221C12.7077 8.12288 11.602 8.01596 10.9461 8.70648L9.76889 9.94585C9.44367 10.2882 9.22574 10.7321 9.25217 11.2245C9.31978 12.4841 9.85803 15.1943 12.8615 18.3564C16.0466 21.7097 19.0351 21.8429 20.2572 21.7223C20.6438 21.6841 20.9799 21.4757 21.2508 21.1905L22.3163 20.0688C23.0354 19.3117 22.8326 18.0136 21.9125 17.484L20.4796 16.6592C19.8754 16.3115 19.1393 16.4136 18.6671 16.9108Z" fill="#FF6000"/>
</g>
</g>
<defs>
<clipPath id="clip0_2565_500">
<rect width="18" height="18" fill="white" transform="translate(7 6)"/>
</clipPath>
<clipPath id="clip1_2565_500">
<rect width="18" height="18" fill="white" transform="translate(7 6)"/>
</clipPath>
</defs>
</svg>
