<svg width="24" height="25" viewBox="0 0 24 25" fill="none" xmlns="http://www.w3.org/2000/svg">
<g clip-path="url(#clip0_4659_13053)">
<path d="M6.32557 13.1574H8.95636V23.9879C8.95636 24.2017 9.12962 24.375 9.34346 24.375H13.8041C14.0179 24.375 14.1911 24.2017 14.1911 23.9879V13.2084H17.2155C17.4121 13.2084 17.5775 13.0609 17.6 12.8655L18.0593 8.87828C18.0719 8.76857 18.0372 8.65872 17.9638 8.57642C17.8903 8.49405 17.7852 8.4469 17.6749 8.4469H14.1913V5.94749C14.1913 5.19405 14.597 4.81198 15.3972 4.81198C15.5112 4.81198 17.6749 4.81198 17.6749 4.81198C17.8887 4.81198 18.062 4.63864 18.062 4.42488V0.764961C18.062 0.551129 17.8887 0.377865 17.6749 0.377865H14.5359C14.5138 0.376781 14.4646 0.375 14.3921 0.375C13.8475 0.375 11.9543 0.481916 10.4589 1.85766C8.80199 3.3822 9.03231 5.20759 9.08735 5.52408V8.44682H6.32557C6.11174 8.44682 5.93848 8.62008 5.93848 8.83392V12.7702C5.93848 12.9841 6.11174 13.1574 6.32557 13.1574Z" fill="#FF6000"/>
</g>
<defs>
<clipPath id="clip0_4659_13053">
<rect width="24" height="24" fill="white" transform="translate(0 0.375)"/>
</clipPath>
</defs>
</svg>
