<svg width="25" height="26" viewBox="0 0 25 26" fill="none" xmlns="http://www.w3.org/2000/svg">
<path fill-rule="evenodd" clip-rule="evenodd" d="M25 25.375H20V16.6262C20 14.2262 18.9413 12.8872 17.0425 12.8872C14.9763 12.8872 13.75 14.2825 13.75 16.6262V25.375H8.75V9.125H13.75V10.9524C13.75 10.9524 15.3187 8.19971 18.8537 8.19971C22.39 8.19971 25 10.3576 25 14.8226V25.375ZM3.0525 6.52612C1.36625 6.52612 0 5.1487 0 3.44995C0 1.75245 1.36625 0.375 3.0525 0.375C4.7375 0.375 6.10374 1.75245 6.10374 3.44995C6.10499 5.1487 4.7375 6.52612 3.0525 6.52612ZM0 25.375H6.25V9.125H0V25.375Z" fill="#FF6000"/>
</svg>
