<svg width="25" height="29" viewBox="0 0 25 29" fill="none" xmlns="http://www.w3.org/2000/svg">
<path d="M0.842097 0.375H3.2594L4.81648 5.36656H4.96706L6.45203 0.375H8.89005L6.09679 7.68119V12.8642H3.69742V7.91363L0.842097 0.375ZM9.14394 5.75347C9.14394 5.02065 9.43296 4.43823 10.0114 4.00344C10.5891 3.5687 11.3657 3.35133 12.3415 3.35133C13.23 3.35133 13.9577 3.58103 14.5245 4.039C15.0929 4.49697 15.3762 5.08623 15.3762 5.80815V10.6958C15.3762 11.5052 15.0974 12.1409 14.5416 12.6017C13.9852 13.0624 13.2188 13.2935 12.244 13.2935C11.3047 13.2935 10.5534 13.0556 9.98938 12.5798C9.42612 12.104 9.14394 11.4642 9.14394 10.6589V5.75347ZM11.3536 10.8366C11.3536 11.0977 11.4294 11.2974 11.5826 11.4409C11.7355 11.5831 11.9537 11.6528 12.2375 11.6528C12.5285 11.6528 12.7598 11.5817 12.9308 11.4368C13.102 11.2906 13.188 11.0909 13.188 10.8366V5.68234C13.188 5.47588 13.1001 5.30908 12.9255 5.18196C12.751 5.05478 12.5217 4.99051 12.2375 4.99051C11.976 4.99051 11.7627 5.05478 11.5994 5.18196C11.4353 5.30908 11.3536 5.47588 11.3536 5.68234V10.8366ZM23.2293 3.50311V12.9667H21.079V11.9222C20.6821 12.3078 20.27 12.6003 19.8408 12.8027C19.4124 13.0023 18.9957 13.1034 18.5928 13.1034C18.0955 13.1034 17.7201 12.9626 17.4681 12.681C17.2161 12.3993 17.0901 11.9769 17.0901 11.4136V3.50311H19.2411V10.7574C19.2411 10.9829 19.2864 11.1443 19.3762 11.2454C19.4669 11.3453 19.6125 11.3958 19.814 11.3958C19.9727 11.3958 20.1729 11.3288 20.4136 11.1962C20.6557 11.0636 20.8775 10.8941 21.0789 10.6876V3.50311H23.2293ZM21.2142 20.2524C21.1086 20.1307 20.9406 20.0678 20.7096 20.0678C20.4682 20.0678 20.295 20.1307 20.19 20.2524C20.085 20.3754 20.0325 20.5791 20.0325 20.8635V21.4528H21.3723V20.8635C21.3723 20.5791 21.3199 20.3754 21.2142 20.2524ZM14.8592 24.6889C14.9747 24.7381 15.0967 24.7613 15.2253 24.7613C15.4117 24.7613 15.5469 24.7148 15.6348 24.6191C15.7227 24.5248 15.766 24.3676 15.766 24.1516V20.7445C15.766 20.5149 15.7122 20.3413 15.6046 20.2223C15.4963 20.1033 15.3383 20.0445 15.1335 20.0445C15.0252 20.0445 14.9183 20.0664 14.8126 20.1102C14.707 20.1553 14.6027 20.225 14.4996 20.318V24.4496C14.623 24.5617 14.743 24.641 14.8592 24.6889ZM24.8337 17.4757C24.8337 15.8351 23.2162 14.5048 21.2228 14.5048C18.379 14.4049 15.4689 14.3612 12.5 14.3666C9.5321 14.3611 6.62197 14.4049 3.77716 14.5048C1.78474 14.5048 0.167279 15.835 0.167279 17.4757C0.0475156 18.7731 -0.00434487 20.0719 0.000283655 21.3707C-0.00429227 22.6695 0.0475156 23.9683 0.167279 25.2672C0.167279 26.9064 1.78474 28.2366 3.77716 28.2366C6.62197 28.3351 9.5321 28.3788 12.5 28.3747C15.4689 28.3788 18.379 28.3351 21.2228 28.2366C23.2162 28.2366 24.8337 26.9064 24.8337 25.2672C24.9531 23.9683 25.0049 22.6695 24.9996 21.3707C25.0049 20.0719 24.9531 18.7731 24.8337 17.4757ZM5.41261 25.743V25.8414H3.70463V25.743V17.9719H1.93758V17.8749V16.6363V16.5392H7.18002V16.6363V17.8749V17.9719H5.41261V25.743ZM11.4884 19.0506V25.743V25.8414H9.97202V25.743V25.0908C9.69184 25.3683 9.40145 25.5775 9.09933 25.7225C8.79653 25.866 8.5032 25.9385 8.21844 25.9385C7.86804 25.9385 7.6039 25.8373 7.42607 25.6363C7.24792 25.434 7.15898 25.1305 7.15898 24.7257V24.6273V19.0506V18.9535H8.67609V19.0506V24.1583C8.67609 24.3183 8.70759 24.4359 8.77087 24.507C8.83488 24.5794 8.93786 24.615 9.07993 24.615C9.1918 24.615 9.33255 24.5672 9.50317 24.4728C9.67311 24.3771 9.82927 24.2554 9.97202 24.1078V19.0506V18.9535H11.4884V19.0506ZM17.3271 20.668V24.3361V24.4346C17.3271 24.9172 17.2083 25.2863 16.9708 25.5433C16.7332 25.7976 16.3894 25.9261 15.9406 25.9261C15.644 25.9261 15.3803 25.8769 15.1479 25.7785C14.915 25.6787 14.6992 25.5255 14.4997 25.3191V25.7429V25.8414H12.9688V25.7429V16.6362V16.5392H14.4997V16.6362V19.5018C14.7044 19.294 14.9209 19.1368 15.1506 19.0301C15.3809 18.9221 15.6139 18.8674 15.8487 18.8674C16.3277 18.8674 16.6952 19.0124 16.9478 19.3022C17.2004 19.592 17.3271 20.0145 17.3271 20.5696V20.668ZM22.9334 20.8758V22.5069V22.6054H20.0325V23.7879C20.0325 24.1448 20.0824 24.3922 20.1821 24.5303C20.2825 24.6684 20.4531 24.7381 20.6945 24.7381C20.9459 24.7381 21.1224 24.6793 21.2228 24.5617C21.3225 24.4455 21.3723 24.1871 21.3723 23.7879V23.4147V23.3163H22.9334V23.4147V23.8262V23.9246C22.9334 24.6205 22.7438 25.1442 22.3633 25.4969C21.9833 25.8496 21.4157 26.0246 20.6604 26.0246C19.9813 26.0246 19.4472 25.8373 19.0568 25.4641C18.667 25.0908 18.4715 24.5768 18.4715 23.9246V23.8262V20.8758V20.7788C18.4715 20.1895 18.686 19.7096 19.1139 19.3377C19.5423 18.9672 20.0969 18.7813 20.7753 18.7813C21.4695 18.7813 22.0023 18.9536 22.3751 19.2967C22.7465 19.6399 22.9334 20.1348 22.9334 20.7788V20.8758H22.9334Z" fill="#FF6000"/>
</svg>
